  0
SECTION
  2
HEADER
  9
$ACADVER
  1
AC1009
  9
$INSBASE
 10
0.0
 20
0.0
 30
0.0
  9
$EXTMIN
 10
0.0
 20
0.0
 30
0.0
  9
$EXTMAX
 10
0.0
 20
0.0
 30
0.0
  0
ENDSEC
  0
SECTION
  2
TABLES
  0
TABLE
  2
VPORT
 70
0
  0
ENDTAB
  0
TABLE
  2
LTYPE
 70
1
  0
LTYPE
  2
CONTINUOUS
 70
0
  3
Solid line
 72
65
 73
0
 40
0.0
  0
ENDTAB
  0
TABLE
  2
LAYER
 70
1
  0
LAYER
  2
0
 70
64
 62
7
  6
continuous
  0
ENDTAB
  0
TABLE
  2
STYLE
 70
1
  0
STYLE
  2
STANDARD
 70
0
 40
0
 41
1.0
 50
0.0
 71
0
 42
1
 3
ARIAL.TTF
 4

  0
ENDTAB
  0
TABLE
  2
VIEW
 70
0
  0
ENDTAB
  0
ENDSEC
  0
SECTION
  2
BLOCKS
  0
BLOCK
  8
0
  2
PART__FEATURE
 70
0
 10
0.0
 20
0.0
 30
0.0
  3
PART__FEATURE
  0
ARC
  8
0
 62
0
 10
0.0
 20
0.0
 30
0.0
 40
2.1
 50
180.0
 51
-0.0
  0
LINE
  8
0
 62
0
 10
3.69
 20
-1.1990408666e-14
 30
0.0
 11
3.9
 21
-0.21
 31
0.0
  0
LINE
  8
0
 62
0
 10
3.69
 20
-1.33226762955e-14
 30
0.0
 11
3.9
 21
0.21
 31
0.0
  0
LINE
  8
0
 62
0
 10
3.9
 20
0.21
 30
0.0
 11
3.9
 21
2.83933982822
 31
0.0
  0
LINE
  8
0
 62
0
 10
3.9
 20
2.83933982822
 30
0.0
 11
6.56066017178
 21
5.5
 31
0.0
  0
LINE
  8
0
 62
0
 10
6.56066017178
 20
5.5
 30
0.0
 11
8.2
 21
5.5
 31
0.0
  0
LINE
  8
0
 62
0
 10
8.2
 20
5.5
 30
0.0
 11
8.2
 21
3.125
 31
0.0
  0
LINE
  8
0
 62
0
 10
8.2
 20
3.125
 30
0.0
 11
8.545
 21
3.125
 31
0.0
  0
LINE
  8
0
 62
0
 10
8.545
 20
3.125
 30
0.0
 11
10.0
 21
4.58
 31
0.0
  0
LINE
  8
0
 62
0
 10
10.0
 20
4.58
 30
0.0
 11
10.0
 21
9.5
 31
0.0
  0
ARC
  8
0
 62
0
 10
9.5
 20
9.5
 30
0.0
 40
0.5
 50
-0.0
 51
90.0
  0
LINE
  8
0
 62
0
 10
9.5
 20
10.0
 30
0.0
 11
4.58
 21
10.0
 31
0.0
  0
LINE
  8
0
 62
0
 10
3.125
 20
8.545
 30
0.0
 11
4.58
 21
10.0
 31
0.0
  0
LINE
  8
0
 62
0
 10
3.125
 20
8.2
 30
0.0
 11
3.125
 21
8.545
 31
0.0
  0
LINE
  8
0
 62
0
 10
5.5
 20
8.2
 30
0.0
 11
3.125
 21
8.2
 31
0.0
  0
LINE
  8
0
 62
0
 10
5.5
 20
6.56066017178
 30
0.0
 11
5.5
 21
8.2
 31
0.0
  0
LINE
  8
0
 62
0
 10
2.83933982822
 20
3.9
 30
0.0
 11
5.5
 21
6.56066017178
 31
0.0
  0
LINE
  8
0
 62
0
 10
0.21
 20
3.9
 30
0.0
 11
2.83933982822
 21
3.9
 31
0.0
  0
LINE
  8
0
 62
0
 10
0.0
 20
3.69
 30
0.0
 11
0.21
 21
3.9
 31
0.0
  0
LINE
  8
0
 62
0
 10
0.0
 20
3.69
 30
0.0
 11
-0.21
 21
3.9
 31
0.0
  0
LINE
  8
0
 62
0
 10
-0.21
 20
3.9
 30
0.0
 11
-2.83933982822
 21
3.9
 31
0.0
  0
LINE
  8
0
 62
0
 10
-2.83933982822
 20
3.9
 30
0.0
 11
-5.5
 21
6.56066017178
 31
0.0
  0
LINE
  8
0
 62
0
 10
-5.5
 20
6.56066017178
 30
0.0
 11
-5.5
 21
8.2
 31
0.0
  0
LINE
  8
0
 62
0
 10
-5.5
 20
8.2
 30
0.0
 11
-3.125
 21
8.2
 31
0.0
  0
LINE
  8
0
 62
0
 10
-3.125
 20
8.2
 30
0.0
 11
-3.125
 21
8.545
 31
0.0
  0
LINE
  8
0
 62
0
 10
-3.125
 20
8.545
 30
0.0
 11
-4.58
 21
10.0
 31
0.0
  0
LINE
  8
0
 62
0
 10
-4.58
 20
10.0
 30
0.0
 11
-9.5
 21
10.0
 31
0.0
  0
ARC
  8
0
 62
0
 10
-9.5
 20
9.5
 30
0.0
 40
0.5
 50
90.0
 51
-180.0
  0
LINE
  8
0
 62
0
 10
-10.0
 20
4.58
 30
0.0
 11
-10.0
 21
9.5
 31
0.0
  0
LINE
  8
0
 62
0
 10
-8.545
 20
3.125
 30
0.0
 11
-10.0
 21
4.58
 31
0.0
  0
LINE
  8
0
 62
0
 10
-8.2
 20
3.125
 30
0.0
 11
-8.545
 21
3.125
 31
0.0
  0
LINE
  8
0
 62
0
 10
-8.2
 20
5.5
 30
0.0
 11
-8.2
 21
3.125
 31
0.0
  0
LINE
  8
0
 62
0
 10
-6.56066017178
 20
5.5
 30
0.0
 11
-8.2
 21
5.5
 31
0.0
  0
LINE
  8
0
 62
0
 10
-3.9
 20
2.83933982822
 30
0.0
 11
-6.56066017178
 21
5.5
 31
0.0
  0
LINE
  8
0
 62
0
 10
-3.9
 20
0.21
 30
0.0
 11
-3.9
 21
2.83933982822
 31
0.0
  0
LINE
  8
0
 62
0
 10
-3.69
 20
-1.31006316906e-14
 30
0.0
 11
-3.9
 21
0.21
 31
0.0
  0
LINE
  8
0
 62
0
 10
-3.69
 20
-1.26565424807e-14
 30
0.0
 11
-3.9
 21
-0.21
 31
0.0
  0
LINE
  8
0
 62
0
 10
-3.9
 20
-0.21
 30
0.0
 11
-3.9
 21
-2.83933982822
 31
0.0
  0
LINE
  8
0
 62
0
 10
-3.9
 20
-2.83933982822
 30
0.0
 11
-6.56066017178
 21
-5.5
 31
0.0
  0
LINE
  8
0
 62
0
 10
-6.56066017178
 20
-5.5
 30
0.0
 11
-8.2
 21
-5.5
 31
0.0
  0
LINE
  8
0
 62
0
 10
-8.2
 20
-5.5
 30
0.0
 11
-8.2
 21
-3.125
 31
0.0
  0
LINE
  8
0
 62
0
 10
-8.2
 20
-3.125
 30
0.0
 11
-8.545
 21
-3.125
 31
0.0
  0
LINE
  8
0
 62
0
 10
-8.545
 20
-3.125
 30
0.0
 11
-10.0
 21
-4.58
 31
0.0
  0
LINE
  8
0
 62
0
 10
-10.0
 20
-9.5
 30
0.0
 11
-10.0
 21
-4.58
 31
0.0
  0
ARC
  8
0
 62
0
 10
-9.5
 20
-9.5
 30
0.0
 40
0.5
 50
-180.0
 51
-90.0
  0
LINE
  8
0
 62
0
 10
-4.58
 20
-10.0
 30
0.0
 11
-9.5
 21
-10.0
 31
0.0
  0
LINE
  8
0
 62
0
 10
-3.125
 20
-8.545
 30
0.0
 11
-4.58
 21
-10.0
 31
0.0
  0
LINE
  8
0
 62
0
 10
-3.125
 20
-8.2
 30
0.0
 11
-3.125
 21
-8.545
 31
0.0
  0
LINE
  8
0
 62
0
 10
-5.5
 20
-8.2
 30
0.0
 11
-3.125
 21
-8.2
 31
0.0
  0
LINE
  8
0
 62
0
 10
-5.5
 20
-6.56066017178
 30
0.0
 11
-5.5
 21
-8.2
 31
0.0
  0
LINE
  8
0
 62
0
 10
-2.83933982822
 20
-3.9
 30
0.0
 11
-5.5
 21
-6.56066017178
 31
0.0
  0
LINE
  8
0
 62
0
 10
-0.21
 20
-3.9
 30
0.0
 11
-2.83933982822
 21
-3.9
 31
0.0
  0
LINE
  8
0
 62
0
 10
2.55351295664e-14
 20
-3.69
 30
0.0
 11
-0.21
 21
-3.9
 31
0.0
  0
LINE
  8
0
 62
0
 10
2.57571741713e-14
 20
-3.69
 30
0.0
 11
0.21
 21
-3.9
 31
0.0
  0
LINE
  8
0
 62
0
 10
0.21
 20
-3.9
 30
0.0
 11
2.83933982822
 21
-3.9
 31
0.0
  0
LINE
  8
0
 62
0
 10
2.83933982822
 20
-3.9
 30
0.0
 11
5.5
 21
-6.56066017178
 31
0.0
  0
LINE
  8
0
 62
0
 10
5.5
 20
-6.56066017178
 30
0.0
 11
5.5
 21
-8.2
 31
0.0
  0
LINE
  8
0
 62
0
 10
5.5
 20
-8.2
 30
0.0
 11
3.125
 21
-8.2
 31
0.0
  0
LINE
  8
0
 62
0
 10
3.125
 20
-8.2
 30
0.0
 11
3.125
 21
-8.545
 31
0.0
  0
LINE
  8
0
 62
0
 10
3.125
 20
-8.545
 30
0.0
 11
4.58
 21
-10.0
 31
0.0
  0
LINE
  8
0
 62
0
 10
9.5
 20
-10.0
 30
0.0
 11
4.58
 21
-10.0
 31
0.0
  0
ARC
  8
0
 62
0
 10
9.5
 20
-9.5
 30
0.0
 40
0.5
 50
-90.0
 51
-0.0
  0
LINE
  8
0
 62
0
 10
10.0
 20
-9.5
 30
0.0
 11
10.0
 21
-4.58
 31
0.0
  0
LINE
  8
0
 62
0
 10
8.545
 20
-3.125
 30
0.0
 11
10.0
 21
-4.58
 31
0.0
  0
LINE
  8
0
 62
0
 10
8.2
 20
-3.125
 30
0.0
 11
8.545
 21
-3.125
 31
0.0
  0
LINE
  8
0
 62
0
 10
8.2
 20
-5.5
 30
0.0
 11
8.2
 21
-3.125
 31
0.0
  0
LINE
  8
0
 62
0
 10
6.56066017178
 20
-5.5
 30
0.0
 11
8.2
 21
-5.5
 31
0.0
  0
LINE
  8
0
 62
0
 10
3.9
 20
-2.83933982822
 30
0.0
 11
6.56066017178
 21
-5.5
 31
0.0
  0
LINE
  8
0
 62
0
 10
3.9
 20
-0.21
 30
0.0
 11
3.9
 21
-2.83933982822
 31
0.0
  0
ARC
  8
0
 62
0
 10
0.0
 20
0.0
 30
0.0
 40
2.1
 50
-0.0
 51
180.0
  0
ENDBLK
  0
ENDSEC
  0
SECTION
  2
ENTITIES
  0
INSERT
  2
PART__FEATURE
  8
0
 62
0
 10
0.0
 20
0.0
 30
0.0
  0
ENDSEC
  0
EOF
