  0
SECTION
  2
HEADER
  9
$ACADVER
  1
AC1009
  9
$INSBASE
 10
0.0
 20
0.0
 30
0.0
  9
$EXTMIN
 10
0.0
 20
0.0
 30
0.0
  9
$EXTMAX
 10
0.0
 20
0.0
 30
0.0
  0
ENDSEC
  0
SECTION
  2
TABLES
  0
TABLE
  2
VPORT
 70
0
  0
ENDTAB
  0
TABLE
  2
LTYPE
 70
1
  0
LTYPE
  2
CONTINUOUS
 70
0
  3
Solid line
 72
65
 73
0
 40
0.0
  0
ENDTAB
  0
TABLE
  2
LAYER
 70
1
  0
LAYER
  2
0
 70
64
 62
7
  6
continuous
  0
ENDTAB
  0
TABLE
  2
STYLE
 70
1
  0
STYLE
  2
STANDARD
 70
0
 40
0
 41
1.0
 50
0.0
 71
0
 42
1
 3
ARIAL.TTF
 4

  0
ENDTAB
  0
TABLE
  2
VIEW
 70
0
  0
ENDTAB
  0
ENDSEC
  0
SECTION
  2
BLOCKS
  0
BLOCK
  8
0
  2
PART__FEATURE
 70
0
 10
0.0
 20
0.0
 30
0.0
  3
PART__FEATURE
  0
ARC
  8
0
 62
0
 10
0.0
 20
20.0
 30
0.0
 40
2.1
 50
-180.0
 51
-0.0
  0
ARC
  8
0
 62
0
 10
0.0
 20
-20.0
 30
0.0
 40
2.1
 50
-180.0
 51
-0.0
  0
ARC
  8
0
 62
0
 10
1.73472347598e-15
 20
-6.93889390391e-15
 30
0.0
 40
2.1
 50
180.0
 51
-0.0
  0
LINE
  8
0
 62
0
 10
3.69
 20
20.0
 30
0.0
 11
3.9
 21
19.79
 31
0.0
  0
LINE
  8
0
 62
0
 10
3.69
 20
20.0
 30
0.0
 11
3.9
 21
20.21
 31
0.0
  0
LINE
  8
0
 62
0
 10
3.9
 20
20.21
 30
0.0
 11
3.9
 21
22.8393398282
 31
0.0
  0
LINE
  8
0
 62
0
 10
3.9
 20
22.8393398282
 30
0.0
 11
6.56066017178
 21
25.5
 31
0.0
  0
LINE
  8
0
 62
0
 10
6.56066017178
 20
25.5
 30
0.0
 11
8.2
 21
25.5
 31
0.0
  0
LINE
  8
0
 62
0
 10
8.2
 20
25.5
 30
0.0
 11
8.2
 21
23.125
 31
0.0
  0
LINE
  8
0
 62
0
 10
8.2
 20
23.125
 30
0.0
 11
8.545
 21
23.125
 31
0.0
  0
LINE
  8
0
 62
0
 10
8.545
 20
23.125
 30
0.0
 11
10.0
 21
24.58
 31
0.0
  0
LINE
  8
0
 62
0
 10
10.0
 20
24.58
 30
0.0
 11
10.0
 21
29.5
 31
0.0
  0
ARC
  8
0
 62
0
 10
9.5
 20
29.5
 30
0.0
 40
0.5
 50
-0.0
 51
90.0
  0
LINE
  8
0
 62
0
 10
9.5
 20
30.0
 30
0.0
 11
4.58
 21
30.0
 31
0.0
  0
LINE
  8
0
 62
0
 10
3.125
 20
28.545
 30
0.0
 11
4.58
 21
30.0
 31
0.0
  0
LINE
  8
0
 62
0
 10
3.125
 20
28.2
 30
0.0
 11
3.125
 21
28.545
 31
0.0
  0
LINE
  8
0
 62
0
 10
5.5
 20
28.2
 30
0.0
 11
3.125
 21
28.2
 31
0.0
  0
LINE
  8
0
 62
0
 10
5.5
 20
26.5606601718
 30
0.0
 11
5.5
 21
28.2
 31
0.0
  0
LINE
  8
0
 62
0
 10
2.83933982822
 20
23.9
 30
0.0
 11
5.5
 21
26.5606601718
 31
0.0
  0
LINE
  8
0
 62
0
 10
0.21
 20
23.9
 30
0.0
 11
2.83933982822
 21
23.9
 31
0.0
  0
LINE
  8
0
 62
0
 10
3.5527136788e-15
 20
23.69
 30
0.0
 11
0.21
 21
23.9
 31
0.0
  0
LINE
  8
0
 62
0
 10
-3.5527136788e-15
 20
23.69
 30
0.0
 11
-0.21
 21
23.9
 31
0.0
  0
LINE
  8
0
 62
0
 10
-0.21
 20
23.9
 30
0.0
 11
-2.83933982822
 21
23.9
 31
0.0
  0
LINE
  8
0
 62
0
 10
-2.83933982822
 20
23.9
 30
0.0
 11
-5.5
 21
26.5606601718
 31
0.0
  0
LINE
  8
0
 62
0
 10
-5.5
 20
26.5606601718
 30
0.0
 11
-5.5
 21
28.2
 31
0.0
  0
LINE
  8
0
 62
0
 10
-5.5
 20
28.2
 30
0.0
 11
-3.125
 21
28.2
 31
0.0
  0
LINE
  8
0
 62
0
 10
-3.125
 20
28.2
 30
0.0
 11
-3.125
 21
28.545
 31
0.0
  0
LINE
  8
0
 62
0
 10
-3.125
 20
28.545
 30
0.0
 11
-4.58
 21
30.0
 31
0.0
  0
LINE
  8
0
 62
0
 10
-4.58
 20
30.0
 30
0.0
 11
-9.5
 21
30.0
 31
0.0
  0
ARC
  8
0
 62
0
 10
-9.5
 20
29.5
 30
0.0
 40
0.5
 50
90.0
 51
-180.0
  0
LINE
  8
0
 62
0
 10
-10.0
 20
24.58
 30
0.0
 11
-10.0
 21
29.5
 31
0.0
  0
LINE
  8
0
 62
0
 10
-8.545
 20
23.125
 30
0.0
 11
-10.0
 21
24.58
 31
0.0
  0
LINE
  8
0
 62
0
 10
-8.2
 20
23.125
 30
0.0
 11
-8.545
 21
23.125
 31
0.0
  0
LINE
  8
0
 62
0
 10
-8.2
 20
25.5
 30
0.0
 11
-8.2
 21
23.125
 31
0.0
  0
LINE
  8
0
 62
0
 10
-6.56066017178
 20
25.5
 30
0.0
 11
-8.2
 21
25.5
 31
0.0
  0
LINE
  8
0
 62
0
 10
-3.9
 20
22.8393398282
 30
0.0
 11
-6.56066017178
 21
25.5
 31
0.0
  0
LINE
  8
0
 62
0
 10
-3.9
 20
20.21
 30
0.0
 11
-3.9
 21
22.8393398282
 31
0.0
  0
LINE
  8
0
 62
0
 10
-3.69
 20
20.0
 30
0.0
 11
-3.9
 21
20.21
 31
0.0
  0
LINE
  8
0
 62
0
 10
-3.69
 20
20.0
 30
0.0
 11
-3.9
 21
19.79
 31
0.0
  0
LINE
  8
0
 62
0
 10
-3.9
 20
19.79
 30
0.0
 11
-3.9
 21
17.1606601718
 31
0.0
  0
LINE
  8
0
 62
0
 10
-3.9
 20
17.1606601718
 30
0.0
 11
-6.56066017178
 21
14.5
 31
0.0
  0
LINE
  8
0
 62
0
 10
-6.56066017178
 20
14.5
 30
0.0
 11
-8.2
 21
14.5
 31
0.0
  0
LINE
  8
0
 62
0
 10
-8.2
 20
14.5
 30
0.0
 11
-8.2
 21
16.875
 31
0.0
  0
LINE
  8
0
 62
0
 10
-8.2
 20
16.875
 30
0.0
 11
-8.545
 21
16.875
 31
0.0
  0
LINE
  8
0
 62
0
 10
-8.545
 20
16.875
 30
0.0
 11
-10.0
 21
15.42
 31
0.0
  0
LINE
  8
0
 62
0
 10
-10.0
 20
4.58
 30
0.0
 11
-10.0
 21
15.42
 31
0.0
  0
LINE
  8
0
 62
0
 10
-8.545
 20
3.125
 30
0.0
 11
-10.0
 21
4.58
 31
0.0
  0
LINE
  8
0
 62
0
 10
-8.2
 20
3.125
 30
0.0
 11
-8.545
 21
3.125
 31
0.0
  0
LINE
  8
0
 62
0
 10
-8.2
 20
5.5
 30
0.0
 11
-8.2
 21
3.125
 31
0.0
  0
LINE
  8
0
 62
0
 10
-6.56066017178
 20
5.5
 30
0.0
 11
-8.2
 21
5.5
 31
0.0
  0
LINE
  8
0
 62
0
 10
-3.9
 20
2.83933982822
 30
0.0
 11
-6.56066017178
 21
5.5
 31
0.0
  0
LINE
  8
0
 62
0
 10
-3.9
 20
0.21
 30
0.0
 11
-3.9
 21
2.83933982822
 31
0.0
  0
LINE
  8
0
 62
0
 10
-3.69
 20
-1.31006316906e-14
 30
0.0
 11
-3.9
 21
0.21
 31
0.0
  0
LINE
  8
0
 62
0
 10
-3.69
 20
-1.26565424807e-14
 30
0.0
 11
-3.9
 21
-0.21
 31
0.0
  0
LINE
  8
0
 62
0
 10
-3.9
 20
-0.21
 30
0.0
 11
-3.9
 21
-2.83933982822
 31
0.0
  0
LINE
  8
0
 62
0
 10
-3.9
 20
-2.83933982822
 30
0.0
 11
-6.56066017178
 21
-5.5
 31
0.0
  0
LINE
  8
0
 62
0
 10
-6.56066017178
 20
-5.5
 30
0.0
 11
-8.2
 21
-5.5
 31
0.0
  0
LINE
  8
0
 62
0
 10
-8.2
 20
-5.5
 30
0.0
 11
-8.2
 21
-3.125
 31
0.0
  0
LINE
  8
0
 62
0
 10
-8.2
 20
-3.125
 30
0.0
 11
-8.545
 21
-3.125
 31
0.0
  0
LINE
  8
0
 62
0
 10
-8.545
 20
-3.125
 30
0.0
 11
-10.0
 21
-4.58
 31
0.0
  0
LINE
  8
0
 62
0
 10
-10.0
 20
-15.42
 30
0.0
 11
-10.0
 21
-4.58
 31
0.0
  0
LINE
  8
0
 62
0
 10
-8.545
 20
-16.875
 30
0.0
 11
-10.0
 21
-15.42
 31
0.0
  0
LINE
  8
0
 62
0
 10
-8.2
 20
-16.875
 30
0.0
 11
-8.545
 21
-16.875
 31
0.0
  0
LINE
  8
0
 62
0
 10
-8.2
 20
-14.5
 30
0.0
 11
-8.2
 21
-16.875
 31
0.0
  0
LINE
  8
0
 62
0
 10
-6.56066017178
 20
-14.5
 30
0.0
 11
-8.2
 21
-14.5
 31
0.0
  0
LINE
  8
0
 62
0
 10
-3.9
 20
-17.1606601718
 30
0.0
 11
-6.56066017178
 21
-14.5
 31
0.0
  0
LINE
  8
0
 62
0
 10
-3.9
 20
-19.79
 30
0.0
 11
-3.9
 21
-17.1606601718
 31
0.0
  0
LINE
  8
0
 62
0
 10
-3.69
 20
-20.0
 30
0.0
 11
-3.9
 21
-19.79
 31
0.0
  0
LINE
  8
0
 62
0
 10
-3.69
 20
-20.0
 30
0.0
 11
-3.9
 21
-20.21
 31
0.0
  0
LINE
  8
0
 62
0
 10
-3.9
 20
-20.21
 30
0.0
 11
-3.9
 21
-22.8393398282
 31
0.0
  0
LINE
  8
0
 62
0
 10
-3.9
 20
-22.8393398282
 30
0.0
 11
-6.56066017178
 21
-25.5
 31
0.0
  0
LINE
  8
0
 62
0
 10
-6.56066017178
 20
-25.5
 30
0.0
 11
-8.2
 21
-25.5
 31
0.0
  0
LINE
  8
0
 62
0
 10
-8.2
 20
-25.5
 30
0.0
 11
-8.2
 21
-23.125
 31
0.0
  0
LINE
  8
0
 62
0
 10
-8.2
 20
-23.125
 30
0.0
 11
-8.545
 21
-23.125
 31
0.0
  0
LINE
  8
0
 62
0
 10
-8.545
 20
-23.125
 30
0.0
 11
-10.0
 21
-24.58
 31
0.0
  0
LINE
  8
0
 62
0
 10
-10.0
 20
-29.5
 30
0.0
 11
-10.0
 21
-24.58
 31
0.0
  0
ARC
  8
0
 62
0
 10
-9.5
 20
-29.5
 30
0.0
 40
0.5
 50
-180.0
 51
-90.0
  0
LINE
  8
0
 62
0
 10
-4.58
 20
-30.0
 30
0.0
 11
-9.5
 21
-30.0
 31
0.0
  0
LINE
  8
0
 62
0
 10
-3.125
 20
-28.545
 30
0.0
 11
-4.58
 21
-30.0
 31
0.0
  0
LINE
  8
0
 62
0
 10
-3.125
 20
-28.2
 30
0.0
 11
-3.125
 21
-28.545
 31
0.0
  0
LINE
  8
0
 62
0
 10
-5.5
 20
-28.2
 30
0.0
 11
-3.125
 21
-28.2
 31
0.0
  0
LINE
  8
0
 62
0
 10
-5.5
 20
-26.5606601718
 30
0.0
 11
-5.5
 21
-28.2
 31
0.0
  0
LINE
  8
0
 62
0
 10
-2.83933982822
 20
-23.9
 30
0.0
 11
-5.5
 21
-26.5606601718
 31
0.0
  0
LINE
  8
0
 62
0
 10
-0.21
 20
-23.9
 30
0.0
 11
-2.83933982822
 21
-23.9
 31
0.0
  0
LINE
  8
0
 62
0
 10
2.48689957516e-14
 20
-23.69
 30
0.0
 11
-0.21
 21
-23.9
 31
0.0
  0
LINE
  8
0
 62
0
 10
2.84217094304e-14
 20
-23.69
 30
0.0
 11
0.21
 21
-23.9
 31
0.0
  0
LINE
  8
0
 62
0
 10
0.21
 20
-23.9
 30
0.0
 11
2.83933982822
 21
-23.9
 31
0.0
  0
LINE
  8
0
 62
0
 10
2.83933982822
 20
-23.9
 30
0.0
 11
5.5
 21
-26.5606601718
 31
0.0
  0
LINE
  8
0
 62
0
 10
5.5
 20
-26.5606601718
 30
0.0
 11
5.5
 21
-28.2
 31
0.0
  0
LINE
  8
0
 62
0
 10
5.5
 20
-28.2
 30
0.0
 11
3.125
 21
-28.2
 31
0.0
  0
LINE
  8
0
 62
0
 10
3.125
 20
-28.2
 30
0.0
 11
3.125
 21
-28.545
 31
0.0
  0
LINE
  8
0
 62
0
 10
3.125
 20
-28.545
 30
0.0
 11
4.58
 21
-30.0
 31
0.0
  0
LINE
  8
0
 62
0
 10
9.5
 20
-30.0
 30
0.0
 11
4.58
 21
-30.0
 31
0.0
  0
ARC
  8
0
 62
0
 10
9.5
 20
-29.5
 30
0.0
 40
0.5
 50
-90.0
 51
-0.0
  0
LINE
  8
0
 62
0
 10
10.0
 20
-29.5
 30
0.0
 11
10.0
 21
-24.58
 31
0.0
  0
LINE
  8
0
 62
0
 10
8.545
 20
-23.125
 30
0.0
 11
10.0
 21
-24.58
 31
0.0
  0
LINE
  8
0
 62
0
 10
8.2
 20
-23.125
 30
0.0
 11
8.545
 21
-23.125
 31
0.0
  0
LINE
  8
0
 62
0
 10
8.2
 20
-25.5
 30
0.0
 11
8.2
 21
-23.125
 31
0.0
  0
LINE
  8
0
 62
0
 10
6.56066017178
 20
-25.5
 30
0.0
 11
8.2
 21
-25.5
 31
0.0
  0
LINE
  8
0
 62
0
 10
3.9
 20
-22.8393398282
 30
0.0
 11
6.56066017178
 21
-25.5
 31
0.0
  0
LINE
  8
0
 62
0
 10
3.9
 20
-20.21
 30
0.0
 11
3.9
 21
-22.8393398282
 31
0.0
  0
LINE
  8
0
 62
0
 10
3.69
 20
-20.0
 30
0.0
 11
3.9
 21
-20.21
 31
0.0
  0
LINE
  8
0
 62
0
 10
3.69
 20
-20.0
 30
0.0
 11
3.9
 21
-19.79
 31
0.0
  0
LINE
  8
0
 62
0
 10
3.9
 20
-19.79
 30
0.0
 11
3.9
 21
-17.1606601718
 31
0.0
  0
LINE
  8
0
 62
0
 10
3.9
 20
-17.1606601718
 30
0.0
 11
6.56066017178
 21
-14.5
 31
0.0
  0
LINE
  8
0
 62
0
 10
6.56066017178
 20
-14.5
 30
0.0
 11
8.2
 21
-14.5
 31
0.0
  0
LINE
  8
0
 62
0
 10
8.2
 20
-14.5
 30
0.0
 11
8.2
 21
-16.875
 31
0.0
  0
LINE
  8
0
 62
0
 10
8.2
 20
-16.875
 30
0.0
 11
8.545
 21
-16.875
 31
0.0
  0
LINE
  8
0
 62
0
 10
8.545
 20
-16.875
 30
0.0
 11
10.0
 21
-15.42
 31
0.0
  0
LINE
  8
0
 62
0
 10
10.0
 20
-15.42
 30
0.0
 11
10.0
 21
-4.58
 31
0.0
  0
LINE
  8
0
 62
0
 10
8.545
 20
-3.125
 30
0.0
 11
10.0
 21
-4.58
 31
0.0
  0
LINE
  8
0
 62
0
 10
8.2
 20
-3.125
 30
0.0
 11
8.545
 21
-3.125
 31
0.0
  0
LINE
  8
0
 62
0
 10
8.2
 20
-5.5
 30
0.0
 11
8.2
 21
-3.125
 31
0.0
  0
LINE
  8
0
 62
0
 10
6.56066017178
 20
-5.5
 30
0.0
 11
8.2
 21
-5.5
 31
0.0
  0
LINE
  8
0
 62
0
 10
3.9
 20
-2.83933982822
 30
0.0
 11
6.56066017178
 21
-5.5
 31
0.0
  0
LINE
  8
0
 62
0
 10
3.9
 20
-0.21
 30
0.0
 11
3.9
 21
-2.83933982822
 31
0.0
  0
LINE
  8
0
 62
0
 10
3.69
 20
-1.1990408666e-14
 30
0.0
 11
3.9
 21
-0.21
 31
0.0
  0
LINE
  8
0
 62
0
 10
3.69
 20
-1.33226762955e-14
 30
0.0
 11
3.9
 21
0.21
 31
0.0
  0
LINE
  8
0
 62
0
 10
3.9
 20
0.21
 30
0.0
 11
3.9
 21
2.83933982822
 31
0.0
  0
LINE
  8
0
 62
0
 10
3.9
 20
2.83933982822
 30
0.0
 11
6.56066017178
 21
5.5
 31
0.0
  0
LINE
  8
0
 62
0
 10
6.56066017178
 20
5.5
 30
0.0
 11
8.2
 21
5.5
 31
0.0
  0
LINE
  8
0
 62
0
 10
8.2
 20
5.5
 30
0.0
 11
8.2
 21
3.125
 31
0.0
  0
LINE
  8
0
 62
0
 10
8.2
 20
3.125
 30
0.0
 11
8.545
 21
3.125
 31
0.0
  0
LINE
  8
0
 62
0
 10
8.545
 20
3.125
 30
0.0
 11
10.0
 21
4.58
 31
0.0
  0
LINE
  8
0
 62
0
 10
10.0
 20
4.58
 30
0.0
 11
10.0
 21
15.42
 31
0.0
  0
LINE
  8
0
 62
0
 10
8.545
 20
16.875
 30
0.0
 11
10.0
 21
15.42
 31
0.0
  0
LINE
  8
0
 62
0
 10
8.2
 20
16.875
 30
0.0
 11
8.545
 21
16.875
 31
0.0
  0
LINE
  8
0
 62
0
 10
8.2
 20
14.5
 30
0.0
 11
8.2
 21
16.875
 31
0.0
  0
LINE
  8
0
 62
0
 10
6.56066017178
 20
14.5
 30
0.0
 11
8.2
 21
14.5
 31
0.0
  0
LINE
  8
0
 62
0
 10
3.9
 20
17.1606601718
 30
0.0
 11
6.56066017178
 21
14.5
 31
0.0
  0
LINE
  8
0
 62
0
 10
-8.2
 20
7.3
 30
0.0
 11
-6.23933982822
 21
7.3
 31
0.0
  0
LINE
  8
0
 62
0
 10
-8.2
 20
7.3
 30
0.0
 11
-8.2
 21
12.7
 31
0.0
  0
LINE
  8
0
 62
0
 10
-8.2
 20
12.7
 30
0.0
 11
-6.23933982822
 21
12.7
 31
0.0
  0
LINE
  8
0
 62
0
 10
-6.23933982822
 20
12.7
 30
0.0
 11
-2.83933982822
 21
16.1
 31
0.0
  0
LINE
  8
0
 62
0
 10
-2.83933982822
 20
16.1
 30
0.0
 11
2.83933982822
 21
16.1
 31
0.0
  0
LINE
  8
0
 62
0
 10
6.23933982822
 20
12.7
 30
0.0
 11
2.83933982822
 21
16.1
 31
0.0
  0
LINE
  8
0
 62
0
 10
8.2
 20
12.7
 30
0.0
 11
6.23933982822
 21
12.7
 31
0.0
  0
LINE
  8
0
 62
0
 10
8.2
 20
7.3
 30
0.0
 11
8.2
 21
12.7
 31
0.0
  0
LINE
  8
0
 62
0
 10
8.2
 20
7.3
 30
0.0
 11
6.23933982822
 21
7.3
 31
0.0
  0
LINE
  8
0
 62
0
 10
6.23933982822
 20
7.3
 30
0.0
 11
2.83933982822
 21
3.9
 31
0.0
  0
LINE
  8
0
 62
0
 10
-2.83933982822
 20
3.9
 30
0.0
 11
2.83933982822
 21
3.9
 31
0.0
  0
LINE
  8
0
 62
0
 10
-8.2
 20
-12.7
 30
0.0
 11
-6.23933982822
 21
-12.7
 31
0.0
  0
LINE
  8
0
 62
0
 10
-8.2
 20
-12.7
 30
0.0
 11
-8.2
 21
-7.3
 31
0.0
  0
LINE
  8
0
 62
0
 10
-8.2
 20
-7.3
 30
0.0
 11
-6.23933982822
 21
-7.3
 31
0.0
  0
LINE
  8
0
 62
0
 10
-6.23933982822
 20
-7.3
 30
0.0
 11
-2.83933982822
 21
-3.9
 31
0.0
  0
LINE
  8
0
 62
0
 10
-2.83933982822
 20
-3.9
 30
0.0
 11
2.83933982822
 21
-3.9
 31
0.0
  0
LINE
  8
0
 62
0
 10
6.23933982822
 20
-7.3
 30
0.0
 11
2.83933982822
 21
-3.9
 31
0.0
  0
LINE
  8
0
 62
0
 10
8.2
 20
-7.3
 30
0.0
 11
6.23933982822
 21
-7.3
 31
0.0
  0
LINE
  8
0
 62
0
 10
8.2
 20
-12.7
 30
0.0
 11
8.2
 21
-7.3
 31
0.0
  0
LINE
  8
0
 62
0
 10
8.2
 20
-12.7
 30
0.0
 11
6.23933982822
 21
-12.7
 31
0.0
  0
LINE
  8
0
 62
0
 10
6.23933982822
 20
-12.7
 30
0.0
 11
2.83933982822
 21
-16.1
 31
0.0
  0
LINE
  8
0
 62
0
 10
-2.83933982822
 20
-16.1
 30
0.0
 11
2.83933982822
 21
-16.1
 31
0.0
  0
ARC
  8
0
 62
0
 10
1.73472347598e-15
 20
-6.93889390391e-15
 30
0.0
 40
2.1
 50
-0.0
 51
180.0
  0
ARC
  8
0
 62
0
 10
0.0
 20
-20.0
 30
0.0
 40
2.1
 50
-0.0
 51
-180.0
  0
LINE
  8
0
 62
0
 10
3.9
 20
19.79
 30
0.0
 11
3.9
 21
17.1606601718
 31
0.0
  0
LINE
  8
0
 62
0
 10
-6.23933982822
 20
7.3
 30
0.0
 11
-2.83933982822
 21
3.9
 31
0.0
  0
LINE
  8
0
 62
0
 10
-6.23933982822
 20
-12.7
 30
0.0
 11
-2.83933982822
 21
-16.1
 31
0.0
  0
ARC
  8
0
 62
0
 10
0.0
 20
20.0
 30
0.0
 40
2.1
 50
-0.0
 51
-180.0
  0
ENDBLK
  0
ENDSEC
  0
SECTION
  2
ENTITIES
  0
INSERT
  2
PART__FEATURE
  8
0
 62
0
 10
0.0
 20
0.0
 30
0.0
  0
ENDSEC
  0
EOF
