  0
SECTION
  2
HEADER
  9
$ACADVER
  1
AC1009
  9
$INSBASE
 10
0.0
 20
0.0
 30
0.0
  9
$EXTMIN
 10
0.0
 20
0.0
 30
0.0
  9
$EXTMAX
 10
0.0
 20
0.0
 30
0.0
  0
ENDSEC
  0
SECTION
  2
TABLES
  0
TABLE
  2
VPORT
 70
0
  0
ENDTAB
  0
TABLE
  2
LTYPE
 70
1
  0
LTYPE
  2
CONTINUOUS
 70
0
  3
Solid line
 72
65
 73
0
 40
0.0
  0
ENDTAB
  0
TABLE
  2
LAYER
 70
1
  0
LAYER
  2
0
 70
64
 62
7
  6
continuous
  0
ENDTAB
  0
TABLE
  2
STYLE
 70
1
  0
STYLE
  2
STANDARD
 70
0
 40
0
 41
1.0
 50
0.0
 71
0
 42
1
 3
ARIAL.TTF
 4

  0
ENDTAB
  0
TABLE
  2
VIEW
 70
0
  0
ENDTAB
  0
ENDSEC
  0
SECTION
  2
BLOCKS
  0
BLOCK
  8
0
  2
PART__FEATURE
 70
0
 10
0.0
 20
0.0
 30
0.0
  3
PART__FEATURE
  0
ARC
  8
0
 62
0
 10
0.0
 20
-10.0
 30
0.0
 40
2.1
 50
-180.0
 51
-0.0
  0
ARC
  8
0
 62
0
 10
0.0
 20
-30.0
 30
0.0
 40
2.1
 50
-180.0
 51
-0.0
  0
ARC
  8
0
 62
0
 10
0.0
 20
30.0
 30
0.0
 40
2.1
 50
-180.0
 51
-0.0
  0
ARC
  8
0
 62
0
 10
0.0
 20
10.0
 30
0.0
 40
2.1
 50
-180.0
 51
-0.0
  0
LINE
  8
0
 62
0
 10
3.69
 20
30.0
 30
0.0
 11
3.9
 21
29.79
 31
0.0
  0
LINE
  8
0
 62
0
 10
3.69
 20
30.0
 30
0.0
 11
3.9
 21
30.21
 31
0.0
  0
LINE
  8
0
 62
0
 10
3.9
 20
30.21
 30
0.0
 11
3.9
 21
32.8393398282
 31
0.0
  0
LINE
  8
0
 62
0
 10
3.9
 20
32.8393398282
 30
0.0
 11
6.56066017178
 21
35.5
 31
0.0
  0
LINE
  8
0
 62
0
 10
6.56066017178
 20
35.5
 30
0.0
 11
8.2
 21
35.5
 31
0.0
  0
LINE
  8
0
 62
0
 10
8.2
 20
35.5
 30
0.0
 11
8.2
 21
33.125
 31
0.0
  0
LINE
  8
0
 62
0
 10
8.2
 20
33.125
 30
0.0
 11
8.545
 21
33.125
 31
0.0
  0
LINE
  8
0
 62
0
 10
8.545
 20
33.125
 30
0.0
 11
10.0
 21
34.58
 31
0.0
  0
LINE
  8
0
 62
0
 10
10.0
 20
34.58
 30
0.0
 11
10.0
 21
39.5
 31
0.0
  0
ARC
  8
0
 62
0
 10
9.5
 20
39.5
 30
0.0
 40
0.5
 50
-0.0
 51
90.0
  0
LINE
  8
0
 62
0
 10
9.5
 20
40.0
 30
0.0
 11
4.58
 21
40.0
 31
0.0
  0
LINE
  8
0
 62
0
 10
3.125
 20
38.545
 30
0.0
 11
4.58
 21
40.0
 31
0.0
  0
LINE
  8
0
 62
0
 10
3.125
 20
38.2
 30
0.0
 11
3.125
 21
38.545
 31
0.0
  0
LINE
  8
0
 62
0
 10
5.5
 20
38.2
 30
0.0
 11
3.125
 21
38.2
 31
0.0
  0
LINE
  8
0
 62
0
 10
5.5
 20
36.5606601718
 30
0.0
 11
5.5
 21
38.2
 31
0.0
  0
LINE
  8
0
 62
0
 10
2.83933982822
 20
33.9
 30
0.0
 11
5.5
 21
36.5606601718
 31
0.0
  0
LINE
  8
0
 62
0
 10
0.21
 20
33.9
 30
0.0
 11
2.83933982822
 21
33.9
 31
0.0
  0
LINE
  8
0
 62
0
 10
0.0
 20
33.69
 30
0.0
 11
0.21
 21
33.9
 31
0.0
  0
LINE
  8
0
 62
0
 10
0.0
 20
33.69
 30
0.0
 11
-0.21
 21
33.9
 31
0.0
  0
LINE
  8
0
 62
0
 10
-0.21
 20
33.9
 30
0.0
 11
-2.83933982822
 21
33.9
 31
0.0
  0
LINE
  8
0
 62
0
 10
-2.83933982822
 20
33.9
 30
0.0
 11
-5.5
 21
36.5606601718
 31
0.0
  0
LINE
  8
0
 62
0
 10
-5.5
 20
36.5606601718
 30
0.0
 11
-5.5
 21
38.2
 31
0.0
  0
LINE
  8
0
 62
0
 10
-5.5
 20
38.2
 30
0.0
 11
-3.125
 21
38.2
 31
0.0
  0
LINE
  8
0
 62
0
 10
-3.125
 20
38.2
 30
0.0
 11
-3.125
 21
38.545
 31
0.0
  0
LINE
  8
0
 62
0
 10
-3.125
 20
38.545
 30
0.0
 11
-4.58
 21
40.0
 31
0.0
  0
LINE
  8
0
 62
0
 10
-4.58
 20
40.0
 30
0.0
 11
-9.5
 21
40.0
 31
0.0
  0
ARC
  8
0
 62
0
 10
-9.5
 20
39.5
 30
0.0
 40
0.5
 50
90.0
 51
-180.0
  0
LINE
  8
0
 62
0
 10
-10.0
 20
34.58
 30
0.0
 11
-10.0
 21
39.5
 31
0.0
  0
LINE
  8
0
 62
0
 10
-8.545
 20
33.125
 30
0.0
 11
-10.0
 21
34.58
 31
0.0
  0
LINE
  8
0
 62
0
 10
-8.2
 20
33.125
 30
0.0
 11
-8.545
 21
33.125
 31
0.0
  0
LINE
  8
0
 62
0
 10
-8.2
 20
35.5
 30
0.0
 11
-8.2
 21
33.125
 31
0.0
  0
LINE
  8
0
 62
0
 10
-6.56066017178
 20
35.5
 30
0.0
 11
-8.2
 21
35.5
 31
0.0
  0
LINE
  8
0
 62
0
 10
-3.9
 20
32.8393398282
 30
0.0
 11
-6.56066017178
 21
35.5
 31
0.0
  0
LINE
  8
0
 62
0
 10
-3.9
 20
30.21
 30
0.0
 11
-3.9
 21
32.8393398282
 31
0.0
  0
LINE
  8
0
 62
0
 10
-3.69
 20
30.0
 30
0.0
 11
-3.9
 21
30.21
 31
0.0
  0
LINE
  8
0
 62
0
 10
-3.69
 20
30.0
 30
0.0
 11
-3.9
 21
29.79
 31
0.0
  0
LINE
  8
0
 62
0
 10
-3.9
 20
29.79
 30
0.0
 11
-3.9
 21
27.1606601718
 31
0.0
  0
LINE
  8
0
 62
0
 10
-3.9
 20
27.1606601718
 30
0.0
 11
-6.56066017178
 21
24.5
 31
0.0
  0
LINE
  8
0
 62
0
 10
-6.56066017178
 20
24.5
 30
0.0
 11
-8.2
 21
24.5
 31
0.0
  0
LINE
  8
0
 62
0
 10
-8.2
 20
24.5
 30
0.0
 11
-8.2
 21
26.875
 31
0.0
  0
LINE
  8
0
 62
0
 10
-8.2
 20
26.875
 30
0.0
 11
-8.545
 21
26.875
 31
0.0
  0
LINE
  8
0
 62
0
 10
-8.545
 20
26.875
 30
0.0
 11
-10.0
 21
25.42
 31
0.0
  0
LINE
  8
0
 62
0
 10
-10.0
 20
14.58
 30
0.0
 11
-10.0
 21
25.42
 31
0.0
  0
LINE
  8
0
 62
0
 10
-8.545
 20
13.125
 30
0.0
 11
-10.0
 21
14.58
 31
0.0
  0
LINE
  8
0
 62
0
 10
-8.2
 20
13.125
 30
0.0
 11
-8.545
 21
13.125
 31
0.0
  0
LINE
  8
0
 62
0
 10
-8.2
 20
15.5
 30
0.0
 11
-8.2
 21
13.125
 31
0.0
  0
LINE
  8
0
 62
0
 10
-6.56066017178
 20
15.5
 30
0.0
 11
-8.2
 21
15.5
 31
0.0
  0
LINE
  8
0
 62
0
 10
-3.9
 20
12.8393398282
 30
0.0
 11
-6.56066017178
 21
15.5
 31
0.0
  0
LINE
  8
0
 62
0
 10
-3.9
 20
10.21
 30
0.0
 11
-3.9
 21
12.8393398282
 31
0.0
  0
LINE
  8
0
 62
0
 10
-3.69
 20
10.0
 30
0.0
 11
-3.9
 21
10.21
 31
0.0
  0
LINE
  8
0
 62
0
 10
-3.69
 20
10.0
 30
0.0
 11
-3.9
 21
9.79
 31
0.0
  0
LINE
  8
0
 62
0
 10
-3.9
 20
9.79
 30
0.0
 11
-3.9
 21
7.16066017178
 31
0.0
  0
LINE
  8
0
 62
0
 10
-3.9
 20
7.16066017178
 30
0.0
 11
-6.56066017178
 21
4.5
 31
0.0
  0
LINE
  8
0
 62
0
 10
-6.56066017178
 20
4.5
 30
0.0
 11
-8.2
 21
4.5
 31
0.0
  0
LINE
  8
0
 62
0
 10
-8.2
 20
4.5
 30
0.0
 11
-8.2
 21
6.875
 31
0.0
  0
LINE
  8
0
 62
0
 10
-8.2
 20
6.875
 30
0.0
 11
-8.545
 21
6.875
 31
0.0
  0
LINE
  8
0
 62
0
 10
-8.545
 20
6.875
 30
0.0
 11
-10.0
 21
5.42
 31
0.0
  0
LINE
  8
0
 62
0
 10
-10.0
 20
-5.42
 30
0.0
 11
-10.0
 21
5.42
 31
0.0
  0
LINE
  8
0
 62
0
 10
-8.545
 20
-6.875
 30
0.0
 11
-10.0
 21
-5.42
 31
0.0
  0
LINE
  8
0
 62
0
 10
-8.2
 20
-6.875
 30
0.0
 11
-8.545
 21
-6.875
 31
0.0
  0
LINE
  8
0
 62
0
 10
-8.2
 20
-4.5
 30
0.0
 11
-8.2
 21
-6.875
 31
0.0
  0
LINE
  8
0
 62
0
 10
-6.56066017178
 20
-4.5
 30
0.0
 11
-8.2
 21
-4.5
 31
0.0
  0
LINE
  8
0
 62
0
 10
-3.9
 20
-7.16066017178
 30
0.0
 11
-6.56066017178
 21
-4.5
 31
0.0
  0
LINE
  8
0
 62
0
 10
-3.9
 20
-9.79
 30
0.0
 11
-3.9
 21
-7.16066017178
 31
0.0
  0
LINE
  8
0
 62
0
 10
-3.69
 20
-10.0
 30
0.0
 11
-3.9
 21
-9.79
 31
0.0
  0
LINE
  8
0
 62
0
 10
-3.69
 20
-10.0
 30
0.0
 11
-3.9
 21
-10.21
 31
0.0
  0
LINE
  8
0
 62
0
 10
-3.9
 20
-10.21
 30
0.0
 11
-3.9
 21
-12.8393398282
 31
0.0
  0
LINE
  8
0
 62
0
 10
-3.9
 20
-12.8393398282
 30
0.0
 11
-6.56066017178
 21
-15.5
 31
0.0
  0
LINE
  8
0
 62
0
 10
-6.56066017178
 20
-15.5
 30
0.0
 11
-8.2
 21
-15.5
 31
0.0
  0
LINE
  8
0
 62
0
 10
-8.2
 20
-15.5
 30
0.0
 11
-8.2
 21
-13.125
 31
0.0
  0
LINE
  8
0
 62
0
 10
-8.2
 20
-13.125
 30
0.0
 11
-8.545
 21
-13.125
 31
0.0
  0
LINE
  8
0
 62
0
 10
-8.545
 20
-13.125
 30
0.0
 11
-10.0
 21
-14.58
 31
0.0
  0
LINE
  8
0
 62
0
 10
-10.0
 20
-25.42
 30
0.0
 11
-10.0
 21
-14.58
 31
0.0
  0
LINE
  8
0
 62
0
 10
-8.545
 20
-26.875
 30
0.0
 11
-10.0
 21
-25.42
 31
0.0
  0
LINE
  8
0
 62
0
 10
-8.2
 20
-26.875
 30
0.0
 11
-8.545
 21
-26.875
 31
0.0
  0
LINE
  8
0
 62
0
 10
-8.2
 20
-24.5
 30
0.0
 11
-8.2
 21
-26.875
 31
0.0
  0
LINE
  8
0
 62
0
 10
-6.56066017178
 20
-24.5
 30
0.0
 11
-8.2
 21
-24.5
 31
0.0
  0
LINE
  8
0
 62
0
 10
-3.9
 20
-27.1606601718
 30
0.0
 11
-6.56066017178
 21
-24.5
 31
0.0
  0
LINE
  8
0
 62
0
 10
-3.9
 20
-29.79
 30
0.0
 11
-3.9
 21
-27.1606601718
 31
0.0
  0
LINE
  8
0
 62
0
 10
-3.69
 20
-30.0
 30
0.0
 11
-3.9
 21
-29.79
 31
0.0
  0
LINE
  8
0
 62
0
 10
-3.69
 20
-30.0
 30
0.0
 11
-3.9
 21
-30.21
 31
0.0
  0
LINE
  8
0
 62
0
 10
-3.9
 20
-30.21
 30
0.0
 11
-3.9
 21
-32.8393398282
 31
0.0
  0
LINE
  8
0
 62
0
 10
-3.9
 20
-32.8393398282
 30
0.0
 11
-6.56066017178
 21
-35.5
 31
0.0
  0
LINE
  8
0
 62
0
 10
-6.56066017178
 20
-35.5
 30
0.0
 11
-8.2
 21
-35.5
 31
0.0
  0
LINE
  8
0
 62
0
 10
-8.2
 20
-35.5
 30
0.0
 11
-8.2
 21
-33.125
 31
0.0
  0
LINE
  8
0
 62
0
 10
-8.2
 20
-33.125
 30
0.0
 11
-8.545
 21
-33.125
 31
0.0
  0
LINE
  8
0
 62
0
 10
-8.545
 20
-33.125
 30
0.0
 11
-10.0
 21
-34.58
 31
0.0
  0
LINE
  8
0
 62
0
 10
-10.0
 20
-39.5
 30
0.0
 11
-10.0
 21
-34.58
 31
0.0
  0
ARC
  8
0
 62
0
 10
-9.5
 20
-39.5
 30
0.0
 40
0.5
 50
-180.0
 51
-90.0
  0
LINE
  8
0
 62
0
 10
-4.58
 20
-40.0
 30
0.0
 11
-9.5
 21
-40.0
 31
0.0
  0
LINE
  8
0
 62
0
 10
-3.125
 20
-38.545
 30
0.0
 11
-4.58
 21
-40.0
 31
0.0
  0
LINE
  8
0
 62
0
 10
-3.125
 20
-38.2
 30
0.0
 11
-3.125
 21
-38.545
 31
0.0
  0
LINE
  8
0
 62
0
 10
-5.5
 20
-38.2
 30
0.0
 11
-3.125
 21
-38.2
 31
0.0
  0
LINE
  8
0
 62
0
 10
-5.5
 20
-36.5606601718
 30
0.0
 11
-5.5
 21
-38.2
 31
0.0
  0
LINE
  8
0
 62
0
 10
-2.83933982822
 20
-33.9
 30
0.0
 11
-5.5
 21
-36.5606601718
 31
0.0
  0
LINE
  8
0
 62
0
 10
-0.21
 20
-33.9
 30
0.0
 11
-2.83933982822
 21
-33.9
 31
0.0
  0
LINE
  8
0
 62
0
 10
2.48689957516e-14
 20
-33.69
 30
0.0
 11
-0.21
 21
-33.9
 31
0.0
  0
LINE
  8
0
 62
0
 10
2.84217094304e-14
 20
-33.69
 30
0.0
 11
0.21
 21
-33.9
 31
0.0
  0
LINE
  8
0
 62
0
 10
0.21
 20
-33.9
 30
0.0
 11
2.83933982822
 21
-33.9
 31
0.0
  0
LINE
  8
0
 62
0
 10
2.83933982822
 20
-33.9
 30
0.0
 11
5.5
 21
-36.5606601718
 31
0.0
  0
LINE
  8
0
 62
0
 10
5.5
 20
-36.5606601718
 30
0.0
 11
5.5
 21
-38.2
 31
0.0
  0
LINE
  8
0
 62
0
 10
5.5
 20
-38.2
 30
0.0
 11
3.125
 21
-38.2
 31
0.0
  0
LINE
  8
0
 62
0
 10
3.125
 20
-38.2
 30
0.0
 11
3.125
 21
-38.545
 31
0.0
  0
LINE
  8
0
 62
0
 10
3.125
 20
-38.545
 30
0.0
 11
4.58
 21
-40.0
 31
0.0
  0
LINE
  8
0
 62
0
 10
9.5
 20
-40.0
 30
0.0
 11
4.58
 21
-40.0
 31
0.0
  0
ARC
  8
0
 62
0
 10
9.5
 20
-39.5
 30
0.0
 40
0.5
 50
-90.0
 51
-0.0
  0
LINE
  8
0
 62
0
 10
10.0
 20
-39.5
 30
0.0
 11
10.0
 21
-34.58
 31
0.0
  0
LINE
  8
0
 62
0
 10
8.545
 20
-33.125
 30
0.0
 11
10.0
 21
-34.58
 31
0.0
  0
LINE
  8
0
 62
0
 10
8.2
 20
-33.125
 30
0.0
 11
8.545
 21
-33.125
 31
0.0
  0
LINE
  8
0
 62
0
 10
8.2
 20
-35.5
 30
0.0
 11
8.2
 21
-33.125
 31
0.0
  0
LINE
  8
0
 62
0
 10
6.56066017178
 20
-35.5
 30
0.0
 11
8.2
 21
-35.5
 31
0.0
  0
LINE
  8
0
 62
0
 10
3.9
 20
-32.8393398282
 30
0.0
 11
6.56066017178
 21
-35.5
 31
0.0
  0
LINE
  8
0
 62
0
 10
3.9
 20
-30.21
 30
0.0
 11
3.9
 21
-32.8393398282
 31
0.0
  0
LINE
  8
0
 62
0
 10
3.69
 20
-30.0
 30
0.0
 11
3.9
 21
-30.21
 31
0.0
  0
LINE
  8
0
 62
0
 10
3.69
 20
-30.0
 30
0.0
 11
3.9
 21
-29.79
 31
0.0
  0
LINE
  8
0
 62
0
 10
3.9
 20
-29.79
 30
0.0
 11
3.9
 21
-27.1606601718
 31
0.0
  0
LINE
  8
0
 62
0
 10
3.9
 20
-27.1606601718
 30
0.0
 11
6.56066017178
 21
-24.5
 31
0.0
  0
LINE
  8
0
 62
0
 10
6.56066017178
 20
-24.5
 30
0.0
 11
8.2
 21
-24.5
 31
0.0
  0
LINE
  8
0
 62
0
 10
8.2
 20
-24.5
 30
0.0
 11
8.2
 21
-26.875
 31
0.0
  0
LINE
  8
0
 62
0
 10
8.2
 20
-26.875
 30
0.0
 11
8.545
 21
-26.875
 31
0.0
  0
LINE
  8
0
 62
0
 10
8.545
 20
-26.875
 30
0.0
 11
10.0
 21
-25.42
 31
0.0
  0
LINE
  8
0
 62
0
 10
10.0
 20
-25.42
 30
0.0
 11
10.0
 21
-14.58
 31
0.0
  0
LINE
  8
0
 62
0
 10
8.545
 20
-13.125
 30
0.0
 11
10.0
 21
-14.58
 31
0.0
  0
LINE
  8
0
 62
0
 10
8.2
 20
-13.125
 30
0.0
 11
8.545
 21
-13.125
 31
0.0
  0
LINE
  8
0
 62
0
 10
8.2
 20
-15.5
 30
0.0
 11
8.2
 21
-13.125
 31
0.0
  0
LINE
  8
0
 62
0
 10
6.56066017178
 20
-15.5
 30
0.0
 11
8.2
 21
-15.5
 31
0.0
  0
LINE
  8
0
 62
0
 10
3.9
 20
-12.8393398282
 30
0.0
 11
6.56066017178
 21
-15.5
 31
0.0
  0
LINE
  8
0
 62
0
 10
3.9
 20
-10.21
 30
0.0
 11
3.9
 21
-12.8393398282
 31
0.0
  0
LINE
  8
0
 62
0
 10
3.69
 20
-10.0
 30
0.0
 11
3.9
 21
-10.21
 31
0.0
  0
LINE
  8
0
 62
0
 10
3.69
 20
-10.0
 30
0.0
 11
3.9
 21
-9.79
 31
0.0
  0
LINE
  8
0
 62
0
 10
3.9
 20
-9.79
 30
0.0
 11
3.9
 21
-7.16066017178
 31
0.0
  0
LINE
  8
0
 62
0
 10
3.9
 20
-7.16066017178
 30
0.0
 11
6.56066017178
 21
-4.5
 31
0.0
  0
LINE
  8
0
 62
0
 10
6.56066017178
 20
-4.5
 30
0.0
 11
8.2
 21
-4.5
 31
0.0
  0
LINE
  8
0
 62
0
 10
8.2
 20
-4.5
 30
0.0
 11
8.2
 21
-6.875
 31
0.0
  0
LINE
  8
0
 62
0
 10
8.2
 20
-6.875
 30
0.0
 11
8.545
 21
-6.875
 31
0.0
  0
LINE
  8
0
 62
0
 10
8.545
 20
-6.875
 30
0.0
 11
10.0
 21
-5.42
 31
0.0
  0
LINE
  8
0
 62
0
 10
10.0
 20
-5.42
 30
0.0
 11
10.0
 21
5.42
 31
0.0
  0
LINE
  8
0
 62
0
 10
8.545
 20
6.875
 30
0.0
 11
10.0
 21
5.42
 31
0.0
  0
LINE
  8
0
 62
0
 10
8.2
 20
6.875
 30
0.0
 11
8.545
 21
6.875
 31
0.0
  0
LINE
  8
0
 62
0
 10
8.2
 20
4.5
 30
0.0
 11
8.2
 21
6.875
 31
0.0
  0
LINE
  8
0
 62
0
 10
6.56066017178
 20
4.5
 30
0.0
 11
8.2
 21
4.5
 31
0.0
  0
LINE
  8
0
 62
0
 10
3.9
 20
7.16066017178
 30
0.0
 11
6.56066017178
 21
4.5
 31
0.0
  0
LINE
  8
0
 62
0
 10
3.9
 20
9.79
 30
0.0
 11
3.9
 21
7.16066017178
 31
0.0
  0
LINE
  8
0
 62
0
 10
3.69
 20
10.0
 30
0.0
 11
3.9
 21
9.79
 31
0.0
  0
LINE
  8
0
 62
0
 10
3.69
 20
10.0
 30
0.0
 11
3.9
 21
10.21
 31
0.0
  0
LINE
  8
0
 62
0
 10
3.9
 20
10.21
 30
0.0
 11
3.9
 21
12.8393398282
 31
0.0
  0
LINE
  8
0
 62
0
 10
3.9
 20
12.8393398282
 30
0.0
 11
6.56066017178
 21
15.5
 31
0.0
  0
LINE
  8
0
 62
0
 10
6.56066017178
 20
15.5
 30
0.0
 11
8.2
 21
15.5
 31
0.0
  0
LINE
  8
0
 62
0
 10
8.2
 20
15.5
 30
0.0
 11
8.2
 21
13.125
 31
0.0
  0
LINE
  8
0
 62
0
 10
8.2
 20
13.125
 30
0.0
 11
8.545
 21
13.125
 31
0.0
  0
LINE
  8
0
 62
0
 10
8.545
 20
13.125
 30
0.0
 11
10.0
 21
14.58
 31
0.0
  0
LINE
  8
0
 62
0
 10
10.0
 20
14.58
 30
0.0
 11
10.0
 21
25.42
 31
0.0
  0
LINE
  8
0
 62
0
 10
8.545
 20
26.875
 30
0.0
 11
10.0
 21
25.42
 31
0.0
  0
LINE
  8
0
 62
0
 10
8.2
 20
26.875
 30
0.0
 11
8.545
 21
26.875
 31
0.0
  0
LINE
  8
0
 62
0
 10
8.2
 20
24.5
 30
0.0
 11
8.2
 21
26.875
 31
0.0
  0
LINE
  8
0
 62
0
 10
6.56066017178
 20
24.5
 30
0.0
 11
8.2
 21
24.5
 31
0.0
  0
LINE
  8
0
 62
0
 10
3.9
 20
27.1606601718
 30
0.0
 11
6.56066017178
 21
24.5
 31
0.0
  0
LINE
  8
0
 62
0
 10
-8.2
 20
17.3
 30
0.0
 11
-6.23933982822
 21
17.3
 31
0.0
  0
LINE
  8
0
 62
0
 10
-8.2
 20
17.3
 30
0.0
 11
-8.2
 21
22.7
 31
0.0
  0
LINE
  8
0
 62
0
 10
-8.2
 20
22.7
 30
0.0
 11
-6.23933982822
 21
22.7
 31
0.0
  0
LINE
  8
0
 62
0
 10
-6.23933982822
 20
22.7
 30
0.0
 11
-2.83933982822
 21
26.1
 31
0.0
  0
LINE
  8
0
 62
0
 10
-2.83933982822
 20
26.1
 30
0.0
 11
2.83933982822
 21
26.1
 31
0.0
  0
LINE
  8
0
 62
0
 10
6.23933982822
 20
22.7
 30
0.0
 11
2.83933982822
 21
26.1
 31
0.0
  0
LINE
  8
0
 62
0
 10
8.2
 20
22.7
 30
0.0
 11
6.23933982822
 21
22.7
 31
0.0
  0
LINE
  8
0
 62
0
 10
8.2
 20
17.3
 30
0.0
 11
8.2
 21
22.7
 31
0.0
  0
LINE
  8
0
 62
0
 10
8.2
 20
17.3
 30
0.0
 11
6.23933982822
 21
17.3
 31
0.0
  0
LINE
  8
0
 62
0
 10
6.23933982822
 20
17.3
 30
0.0
 11
2.83933982822
 21
13.9
 31
0.0
  0
LINE
  8
0
 62
0
 10
-2.83933982822
 20
13.9
 30
0.0
 11
2.83933982822
 21
13.9
 31
0.0
  0
LINE
  8
0
 62
0
 10
-8.2
 20
-2.7
 30
0.0
 11
-6.23933982822
 21
-2.7
 31
0.0
  0
LINE
  8
0
 62
0
 10
-8.2
 20
-2.7
 30
0.0
 11
-8.2
 21
2.7
 31
0.0
  0
LINE
  8
0
 62
0
 10
-8.2
 20
2.7
 30
0.0
 11
-6.23933982822
 21
2.7
 31
0.0
  0
LINE
  8
0
 62
0
 10
-6.23933982822
 20
2.7
 30
0.0
 11
-2.83933982822
 21
6.1
 31
0.0
  0
LINE
  8
0
 62
0
 10
-2.83933982822
 20
6.1
 30
0.0
 11
2.83933982822
 21
6.1
 31
0.0
  0
LINE
  8
0
 62
0
 10
6.23933982822
 20
2.7
 30
0.0
 11
2.83933982822
 21
6.1
 31
0.0
  0
LINE
  8
0
 62
0
 10
8.2
 20
2.7
 30
0.0
 11
6.23933982822
 21
2.7
 31
0.0
  0
LINE
  8
0
 62
0
 10
8.2
 20
-2.7
 30
0.0
 11
8.2
 21
2.7
 31
0.0
  0
LINE
  8
0
 62
0
 10
8.2
 20
-2.7
 30
0.0
 11
6.23933982822
 21
-2.7
 31
0.0
  0
LINE
  8
0
 62
0
 10
6.23933982822
 20
-2.7
 30
0.0
 11
2.83933982822
 21
-6.1
 31
0.0
  0
LINE
  8
0
 62
0
 10
-2.83933982822
 20
-6.1
 30
0.0
 11
2.83933982822
 21
-6.1
 31
0.0
  0
LINE
  8
0
 62
0
 10
-8.2
 20
-22.7
 30
0.0
 11
-6.23933982822
 21
-22.7
 31
0.0
  0
LINE
  8
0
 62
0
 10
-8.2
 20
-22.7
 30
0.0
 11
-8.2
 21
-17.3
 31
0.0
  0
LINE
  8
0
 62
0
 10
-8.2
 20
-17.3
 30
0.0
 11
-6.23933982822
 21
-17.3
 31
0.0
  0
LINE
  8
0
 62
0
 10
-6.23933982822
 20
-17.3
 30
0.0
 11
-2.83933982822
 21
-13.9
 31
0.0
  0
LINE
  8
0
 62
0
 10
-2.83933982822
 20
-13.9
 30
0.0
 11
2.83933982822
 21
-13.9
 31
0.0
  0
LINE
  8
0
 62
0
 10
6.23933982822
 20
-17.3
 30
0.0
 11
2.83933982822
 21
-13.9
 31
0.0
  0
LINE
  8
0
 62
0
 10
8.2
 20
-17.3
 30
0.0
 11
6.23933982822
 21
-17.3
 31
0.0
  0
LINE
  8
0
 62
0
 10
8.2
 20
-22.7
 30
0.0
 11
8.2
 21
-17.3
 31
0.0
  0
LINE
  8
0
 62
0
 10
8.2
 20
-22.7
 30
0.0
 11
6.23933982822
 21
-22.7
 31
0.0
  0
LINE
  8
0
 62
0
 10
6.23933982822
 20
-22.7
 30
0.0
 11
2.83933982822
 21
-26.1
 31
0.0
  0
LINE
  8
0
 62
0
 10
-2.83933982822
 20
-26.1
 30
0.0
 11
2.83933982822
 21
-26.1
 31
0.0
  0
ARC
  8
0
 62
0
 10
0.0
 20
10.0
 30
0.0
 40
2.1
 50
-0.0
 51
-180.0
  0
ARC
  8
0
 62
0
 10
0.0
 20
30.0
 30
0.0
 40
2.1
 50
-0.0
 51
-180.0
  0
ARC
  8
0
 62
0
 10
0.0
 20
-30.0
 30
0.0
 40
2.1
 50
-0.0
 51
-180.0
  0
LINE
  8
0
 62
0
 10
3.9
 20
29.79
 30
0.0
 11
3.9
 21
27.1606601718
 31
0.0
  0
LINE
  8
0
 62
0
 10
-6.23933982822
 20
17.3
 30
0.0
 11
-2.83933982822
 21
13.9
 31
0.0
  0
LINE
  8
0
 62
0
 10
-6.23933982822
 20
-2.7
 30
0.0
 11
-2.83933982822
 21
-6.1
 31
0.0
  0
LINE
  8
0
 62
0
 10
-6.23933982822
 20
-22.7
 30
0.0
 11
-2.83933982822
 21
-26.1
 31
0.0
  0
ARC
  8
0
 62
0
 10
0.0
 20
-10.0
 30
0.0
 40
2.1
 50
-0.0
 51
-180.0
  0
ENDBLK
  0
ENDSEC
  0
SECTION
  2
ENTITIES
  0
INSERT
  2
PART__FEATURE
  8
0
 62
0
 10
0.0
 20
0.0
 30
0.0
  0
ENDSEC
  0
EOF
